<svg id="Layer_1" data-name="Layer 1" xmlns="http://www.w3.org/2000/svg" viewBox="0 0 122.88 91.98"><title>deposit</title><path d="M103.85,57.91a2.47,2.47,0,0,1,2.27,1.5l16.47,28.94c.45.87.25,2.62.23,3.63H.05l0-2.5a2.47,2.47,0,0,1,.37-1.27l16.7-29a2.45,2.45,0,0,1,2.17-1.31H50L43.21,46.19a12.27,12.27,0,0,1-1.07-1.54L41.08,42.8h0a1.5,1.5,0,0,1-.31.24l-1.76,1-.31.14a4.93,4.93,0,0,1-5.84-1.3,1.6,1.6,0,0,1-.47.43l-1.76,1a1.69,1.69,0,0,1-.31.13,5,5,0,0,1-6.15-1.64A1,1,0,0,1,24,43l-1.76,1-.31.14c-5.26,2-8-2.8-10.16-6.7l-.59-1L8.52,32l-.08-.14C6.42,28,6.5,24.63,6.59,20.79c0-.65,0-1.3,0-2.21,0,0,0,0,0-.06A12.51,12.51,0,0,1,7.68,13.1,8.08,8.08,0,0,1,11,9.49L26.18.7A4.61,4.61,0,0,1,30.85.57a11.76,11.76,0,0,1,3.92,3.54l17.31,8.07.07,0c.22.1.46.2.72.33L60.71,8,89.53,57.91ZM51,48.84,60,64.58a5.05,5.05,0,0,1,6.91,1.85l11.73-6.77a5.07,5.07,0,0,1,1.85-6.91L61.7,20.14a5.08,5.08,0,0,1-6.92-1.85l-9,5.21.36.61L53.44,36.8a10.44,10.44,0,0,1,2.77-2.32,10.08,10.08,0,1,1-3.68,13.77l-.07-.12-.28.16a6.16,6.16,0,0,1-1.23.55ZM42.78,18.35,49,14.74,32.93,8a1.39,1.39,0,0,1-.55-.46,10.19,10.19,0,0,0-3.07-3,1.85,1.85,0,0,0-1.9,0L12.83,13a5.21,5.21,0,0,0-2.11,2.34c-.53,1.1-.37,2.25-.37,3.92a.31.31,0,0,1,0,.09c0,.63,0,1.45,0,2.24-.08,3.43-.52,5.4,1.15,8.64l2.6,4.29a.57.57,0,0,1,.12.18c0,.06.27.47.58,1,1.63,2.89,3.63,6.47,6.52,5.39l1.29-.75c-.45-.82-.88-1.67-1.29-2.49s-.71-1.45-1.09-2.1a1.46,1.46,0,1,1,2.53-1.47c.38.66.78,1.45,1.19,2.27,1.4,2.81,3,6,5.37,5.16l1.68-1a2.71,2.71,0,0,1,.3-.13c-.58-1-1.11-2-1.61-3-.37-.74-.71-1.44-1.09-2.1A1.46,1.46,0,1,1,31.1,34c.38.65.77,1.45,1.19,2.27,1.39,2.8,3,6,5.36,5.16l1.69-1a1.25,1.25,0,0,1,.36-.15L36.85,35.4a1.46,1.46,0,0,1,2.53-1.47l5.35,9.26c1.28,2.22,3,3.11,4.5,3a3.33,3.33,0,0,0,1.51-.45,3,3,0,0,0,.64-.48h0c0-.12.11-.18.24-.25a2.33,2.33,0,0,0,.27-.35,4.79,4.79,0,0,0,0-4.71l0-.08c-.1-.21-.22-.43-.34-.65L40.35,20a1.47,1.47,0,0,1,2.43-1.64Zm10,44.49H20.72L6.54,87H116.38l-14-24.2H85.17L68.79,72.3H83.91a2.47,2.47,0,1,1,0,4.93H42.57a2.46,2.46,0,1,1,0-4.91H58.29l-5.47-9.46Z"/></svg>